<?xml version="1.0" standalone="no"?>
<!DOCTYPE svg PUBLIC "-//W3C//DTD SVG 20010904//EN"
        "http://www.w3.org/TR/2001/REC-SVG-20010904/DTD/svg10.dtd">
<svg version="1.0" xmlns="http://www.w3.org/2000/svg"
     width="960.000000pt" height="960.000000pt" viewBox="0 0 960.000000 960.000000"
     preserveAspectRatio="xMidYMid meet">

    <g transform="translate(0.000000,960.000000) scale(0.100000,-0.100000)"
       fill="#000000" stroke="none">
        <path d="M3910 9445 l0 -155 -150 0 -150 0 0 -300 0 -300 -150 0 -150 0 0
-150 0 -150 -450 0 -450 0 0 150 0 150 -450 0 -450 0 0 -450 0 -450 150 0 150
0 0 -300 0 -300 150 0 150 0 0 -150 0 -150 -300 0 -300 0 0 150 0 150 -300 0
-300 0 0 -450 0 -450 150 0 150 0 0 -300 0 -300 300 0 300 0 0 -150 0 -150
150 0 150 0 0 150 0 150 150 0 150 0 0 150 0 150 -300 0 -300 0 0 150 0 150
-150 0 -150 0 0 150 0 150 300 0 300 0 0 -150 0 -150 300 0 300 0 0 450 0 450
-150 0 -150 0 0 450 0 450 150 0 150 0 0 -300 0 -300 150 0 150 0 0 -300 0
-300 150 0 150 0 0 -150 0 -150 450 0 450 0 0 450 0 450 150 0 150 0 0 750 0
750 150 0 150 0 0 -900 0 -900 150 0 150 0 0 -300 0 -300 300 0 300 0 0 150 0
150 150 0 150 0 0 300 0 300 150 0 150 0 0 150 0 150 150 0 150 0 0 -450 0
-450 -150 0 -150 0 0 -150 0 -150 -150 0 -150 0 0 -150 0 -150 -300 0 -300 0
0 -150 0 -150 750 0 750 0 0 150 0 150 150 0 150 0 0 -300 0 -300 -600 0 -600
0 0 -150 0 -150 900 0 900 0 0 150 0 150 150 0 150 0 0 300 0 300 150 0 150 0
0 300 0 300 -300 0 -300 0 0 150 0 150 -150 0 -150 0 0 900 0 900 -150 0 -150
0 0 -150 0 -150 -300 0 -300 0 0 -150 0 -150 -300 0 -300 0 0 150 0 150 -150
0 -150 0 0 150 0 150 -150 0 -150 0 0 150 0 150 -150 0 -150 0 0 155 0 155
-600 0 -600 0 0 -155z"/>
        <path d="M3310 4790 l0 -600 300 0 300 0 0 600 0 600 -300 0 -300 0 0 -600z"/>
        <path d="M1210 4940 l0 -150 150 0 150 0 0 -150 0 -150 150 0 150 0 0 150 0
150 150 0 150 0 0 150 0 150 -450 0 -450 0 0 -150z"/>
        <path d="M2410 4490 l0 -600 -450 0 -450 0 0 -150 0 -150 -150 0 -150 0 0
-150 0 -150 -150 0 -150 0 0 -600 0 -600 150 0 150 0 0 -300 0 -300 150 0 150
0 0 -150 0 -150 600 0 600 0 0 -150 0 -150 300 0 300 0 0 -300 0 -300 150 0
150 0 0 -145 0 -145 600 0 600 0 0 145 0 145 450 0 450 0 0 150 0 150 150 0
150 0 0 300 0 300 600 0 600 0 0 150 0 150 450 0 450 0 0 450 0 450 -150 0
-150 0 0 450 0 450 150 0 150 0 0 -150 0 -150 300 0 300 0 0 450 0 450 -450 0
-450 0 0 150 0 150 -300 0 -300 0 0 150 0 150 300 0 300 0 0 150 0 150 150 0
150 0 0 150 0 150 -450 0 -450 0 0 -300 0 -300 -150 0 -150 0 0 300 0 300
-150 0 -150 0 0 -450 0 -450 -150 0 -150 0 0 -300 0 -300 -300 0 -300 0 0
-300 0 -300 -150 0 -150 0 0 150 0 150 -900 0 -900 0 0 150 0 150 -450 0 -450
0 0 750 0 750 -150 0 -150 0 0 -600z m4800 -1050 l0 -150 150 0 150 0 0 -600
0 -600 -150 0 -150 0 0 -150 0 -150 -150 0 -150 0 0 -150 0 -150 -300 0 -300
0 0 450 0 450 300 0 300 0 0 150 0 150 -150 0 -150 0 0 450 0 450 300 0 300 0
0 -150z m-4800 -300 l0 -150 150 0 150 0 0 -150 0 -150 -150 0 -150 0 0 -150
0 -150 -150 0 -150 0 0 -150 0 -150 150 0 150 0 0 -150 0 -150 -150 0 -150 0
0 -150 0 -150 -300 0 -300 0 0 600 0 600 150 0 150 0 0 300 0 300 300 0 300 0
0 -150z m1800 -300 l0 -150 450 0 450 0 0 150 0 150 150 0 150 0 0 -150 0
-150 -150 0 -150 0 0 -150 0 -150 150 0 150 0 0 -150 0 -150 -150 0 -150 0 0
-150 0 -150 -150 0 -150 0 0 -150 0 -150 -150 0 -150 0 0 150 0 150 -150 0
-150 0 0 150 0 150 -150 0 -150 0 0 150 0 150 150 0 150 0 0 150 0 150 -150 0
-150 0 0 150 0 150 150 0 150 0 0 -150z"/>
        <path d="M5410 4640 l0 -450 300 0 300 0 0 450 0 450 -300 0 -300 0 0 -450z"/>
    </g>
</svg>
